<mxfile host="Electron" modified="2024-01-09T01:08:57.118Z" agent="Mozilla/5.0 (Windows NT 10.0; Win64; x64) AppleWebKit/537.36 (KHTML, like Gecko) draw.io/22.1.16 Chrome/120.0.6099.109 Electron/28.1.0 Safari/537.36" etag="OiFgbRhHhYhWkt04hsLm" version="22.1.16" type="device">
  <diagram name="Page-1" id="Ui7ZzR2me5jPw9V2pB2A">
    <mxGraphModel dx="1950" dy="1802" grid="1" gridSize="10" guides="1" tooltips="1" connect="1" arrows="1" fold="1" page="1" pageScale="1" pageWidth="850" pageHeight="1100" math="0" shadow="0">
      <root>
        <mxCell id="0" />
        <mxCell id="1" parent="0" />
        <mxCell id="Bo_J6f6JGp_1QR0dRfJA-8" style="edgeStyle=orthogonalEdgeStyle;rounded=0;orthogonalLoop=1;jettySize=auto;html=1;exitX=0.5;exitY=0;exitDx=0;exitDy=0;exitPerimeter=0;startArrow=block;startFill=1;shape=link;" edge="1" parent="1" source="Bo_J6f6JGp_1QR0dRfJA-1">
          <mxGeometry relative="1" as="geometry">
            <mxPoint x="420" y="400" as="targetPoint" />
            <Array as="points">
              <mxPoint x="420" y="430" />
              <mxPoint x="420" y="430" />
            </Array>
          </mxGeometry>
        </mxCell>
        <mxCell id="Bo_J6f6JGp_1QR0dRfJA-9" value="1) Send Events" style="edgeLabel;html=1;align=center;verticalAlign=middle;resizable=0;points=[];" vertex="1" connectable="0" parent="Bo_J6f6JGp_1QR0dRfJA-8">
          <mxGeometry x="-0.0238" relative="1" as="geometry">
            <mxPoint as="offset" />
          </mxGeometry>
        </mxCell>
        <mxCell id="Bo_J6f6JGp_1QR0dRfJA-1" value="Win10 Client Wazuh Agent" style="fontColor=#0066CC;verticalAlign=top;verticalLabelPosition=bottom;labelPosition=center;align=center;html=1;outlineConnect=0;fillColor=#CCCCCC;strokeColor=#6881B3;gradientColor=none;gradientDirection=north;strokeWidth=2;shape=mxgraph.networks.virtual_pc;" vertex="1" parent="1">
          <mxGeometry x="362.25" y="540" width="115" height="85" as="geometry" />
        </mxCell>
        <mxCell id="Bo_J6f6JGp_1QR0dRfJA-10" style="edgeStyle=orthogonalEdgeStyle;rounded=0;orthogonalLoop=1;jettySize=auto;html=1;shape=link;" edge="1" parent="1" source="Bo_J6f6JGp_1QR0dRfJA-2" target="Bo_J6f6JGp_1QR0dRfJA-3">
          <mxGeometry relative="1" as="geometry" />
        </mxCell>
        <mxCell id="Bo_J6f6JGp_1QR0dRfJA-2" value="Router" style="sketch=0;aspect=fixed;pointerEvents=1;shadow=0;dashed=0;html=1;strokeColor=none;labelPosition=center;verticalLabelPosition=bottom;verticalAlign=top;align=center;fillColor=#00188D;shape=mxgraph.mscae.enterprise.router" vertex="1" parent="1">
          <mxGeometry x="394.75" y="340" width="50" height="39" as="geometry" />
        </mxCell>
        <mxCell id="Bo_J6f6JGp_1QR0dRfJA-3" value="internet" style="outlineConnect=0;dashed=0;verticalLabelPosition=bottom;verticalAlign=top;align=center;html=1;shape=mxgraph.aws3.internet_3;fillColor=#D2D3D3;gradientColor=none;" vertex="1" parent="1">
          <mxGeometry x="380" y="130" width="79.5" height="54" as="geometry" />
        </mxCell>
        <mxCell id="Bo_J6f6JGp_1QR0dRfJA-4" value="The Hive" style="outlineConnect=0;dashed=0;verticalLabelPosition=bottom;verticalAlign=top;align=center;html=1;shape=mxgraph.aws3.internet_3;fillColor=#D2D3D3;gradientColor=none;" vertex="1" parent="1">
          <mxGeometry x="620" y="130" width="79.5" height="54" as="geometry" />
        </mxCell>
        <mxCell id="Bo_J6f6JGp_1QR0dRfJA-5" value="Wazuh Manager" style="outlineConnect=0;dashed=0;verticalLabelPosition=bottom;verticalAlign=top;align=center;html=1;shape=mxgraph.aws3.internet_3;fillColor=#D2D3D3;gradientColor=none;" vertex="1" parent="1">
          <mxGeometry x="130" y="122" width="79.5" height="50" as="geometry" />
        </mxCell>
        <mxCell id="Bo_J6f6JGp_1QR0dRfJA-13" style="edgeStyle=orthogonalEdgeStyle;rounded=0;orthogonalLoop=1;jettySize=auto;html=1;shape=link;fillColor=#d5e8d4;strokeColor=#82b366;" edge="1" parent="1" source="Bo_J6f6JGp_1QR0dRfJA-6" target="Bo_J6f6JGp_1QR0dRfJA-3">
          <mxGeometry relative="1" as="geometry" />
        </mxCell>
        <mxCell id="Bo_J6f6JGp_1QR0dRfJA-16" value="4) Enrich IOCS" style="edgeLabel;html=1;align=center;verticalAlign=middle;resizable=0;points=[];" vertex="1" connectable="0" parent="Bo_J6f6JGp_1QR0dRfJA-13">
          <mxGeometry x="0.0228" y="-1" relative="1" as="geometry">
            <mxPoint as="offset" />
          </mxGeometry>
        </mxCell>
        <mxCell id="Bo_J6f6JGp_1QR0dRfJA-27" style="edgeStyle=orthogonalEdgeStyle;rounded=0;orthogonalLoop=1;jettySize=auto;html=1;shape=link;fillColor=#f8cecc;strokeColor=#b85450;" edge="1" parent="1" source="Bo_J6f6JGp_1QR0dRfJA-6">
          <mxGeometry relative="1" as="geometry">
            <mxPoint x="160" y="120" as="targetPoint" />
          </mxGeometry>
        </mxCell>
        <mxCell id="Bo_J6f6JGp_1QR0dRfJA-28" value="8) Send Response Action" style="edgeLabel;html=1;align=center;verticalAlign=middle;resizable=0;points=[];" vertex="1" connectable="0" parent="Bo_J6f6JGp_1QR0dRfJA-27">
          <mxGeometry x="0.5799" y="2" relative="1" as="geometry">
            <mxPoint as="offset" />
          </mxGeometry>
        </mxCell>
        <mxCell id="Bo_J6f6JGp_1QR0dRfJA-6" value="Shuffle" style="outlineConnect=0;dashed=0;verticalLabelPosition=bottom;verticalAlign=top;align=center;html=1;shape=mxgraph.aws3.internet_3;fillColor=#D2D3D3;gradientColor=none;" vertex="1" parent="1">
          <mxGeometry x="380" y="-70" width="79.5" height="54" as="geometry" />
        </mxCell>
        <mxCell id="Bo_J6f6JGp_1QR0dRfJA-7" value="SOC Analyst" style="fontColor=#0066CC;verticalAlign=top;verticalLabelPosition=bottom;labelPosition=center;align=center;html=1;outlineConnect=0;fillColor=#CCCCCC;strokeColor=#6881B3;gradientColor=none;gradientDirection=north;strokeWidth=2;shape=mxgraph.networks.pc;" vertex="1" parent="1">
          <mxGeometry x="609.75" y="280" width="100" height="70" as="geometry" />
        </mxCell>
        <mxCell id="Bo_J6f6JGp_1QR0dRfJA-11" style="edgeStyle=orthogonalEdgeStyle;rounded=0;orthogonalLoop=1;jettySize=auto;html=1;entryX=1;entryY=0.7;entryDx=0;entryDy=0;entryPerimeter=0;shape=link;" edge="1" parent="1" source="Bo_J6f6JGp_1QR0dRfJA-3" target="Bo_J6f6JGp_1QR0dRfJA-5">
          <mxGeometry relative="1" as="geometry" />
        </mxCell>
        <mxCell id="Bo_J6f6JGp_1QR0dRfJA-14" value="2) Receive Events&amp;nbsp;" style="edgeLabel;html=1;align=center;verticalAlign=middle;resizable=0;points=[];" vertex="1" connectable="0" parent="Bo_J6f6JGp_1QR0dRfJA-11">
          <mxGeometry x="0.0205" y="-1" relative="1" as="geometry">
            <mxPoint as="offset" />
          </mxGeometry>
        </mxCell>
        <mxCell id="Bo_J6f6JGp_1QR0dRfJA-12" style="rounded=0;orthogonalLoop=1;jettySize=auto;html=1;entryX=0;entryY=0.7;entryDx=0;entryDy=0;entryPerimeter=0;shape=link;" edge="1" parent="1" source="Bo_J6f6JGp_1QR0dRfJA-5" target="Bo_J6f6JGp_1QR0dRfJA-6">
          <mxGeometry relative="1" as="geometry" />
        </mxCell>
        <mxCell id="Bo_J6f6JGp_1QR0dRfJA-15" value="3) SendAlerts" style="edgeLabel;html=1;align=center;verticalAlign=middle;resizable=0;points=[];" vertex="1" connectable="0" parent="Bo_J6f6JGp_1QR0dRfJA-12">
          <mxGeometry x="-0.0214" y="2" relative="1" as="geometry">
            <mxPoint y="-1" as="offset" />
          </mxGeometry>
        </mxCell>
        <mxCell id="Bo_J6f6JGp_1QR0dRfJA-17" style="rounded=0;orthogonalLoop=1;jettySize=auto;html=1;entryX=0.38;entryY=0.02;entryDx=0;entryDy=0;entryPerimeter=0;shape=link;fillColor=#dae8fc;strokeColor=#6c8ebf;" edge="1" parent="1" source="Bo_J6f6JGp_1QR0dRfJA-6" target="Bo_J6f6JGp_1QR0dRfJA-4">
          <mxGeometry relative="1" as="geometry" />
        </mxCell>
        <mxCell id="Bo_J6f6JGp_1QR0dRfJA-18" value="5) Send Alerts" style="edgeLabel;html=1;align=center;verticalAlign=middle;resizable=0;points=[];" vertex="1" connectable="0" parent="Bo_J6f6JGp_1QR0dRfJA-17">
          <mxGeometry x="-0.023" y="-1" relative="1" as="geometry">
            <mxPoint as="offset" />
          </mxGeometry>
        </mxCell>
        <mxCell id="Bo_J6f6JGp_1QR0dRfJA-19" style="rounded=0;orthogonalLoop=1;jettySize=auto;html=1;entryX=0.77;entryY=0.25;entryDx=0;entryDy=0;entryPerimeter=0;shape=link;fillColor=#ffe6cc;strokeColor=#d79b00;" edge="1" parent="1" source="Bo_J6f6JGp_1QR0dRfJA-6" target="Bo_J6f6JGp_1QR0dRfJA-3">
          <mxGeometry relative="1" as="geometry">
            <Array as="points">
              <mxPoint x="520" y="80" />
            </Array>
          </mxGeometry>
        </mxCell>
        <mxCell id="Bo_J6f6JGp_1QR0dRfJA-21" value="6) Send Email" style="edgeLabel;html=1;align=center;verticalAlign=middle;resizable=0;points=[];" vertex="1" connectable="0" parent="Bo_J6f6JGp_1QR0dRfJA-19">
          <mxGeometry x="-0.4293" y="-3" relative="1" as="geometry">
            <mxPoint as="offset" />
          </mxGeometry>
        </mxCell>
        <mxCell id="Bo_J6f6JGp_1QR0dRfJA-20" style="rounded=0;orthogonalLoop=1;jettySize=auto;html=1;exitX=1;exitY=0.7;exitDx=0;exitDy=0;exitPerimeter=0;entryX=0;entryY=0;entryDx=0;entryDy=0;entryPerimeter=0;shape=link;fillColor=#ffe6cc;strokeColor=#d79b00;" edge="1" parent="1" source="Bo_J6f6JGp_1QR0dRfJA-3" target="Bo_J6f6JGp_1QR0dRfJA-7">
          <mxGeometry relative="1" as="geometry" />
        </mxCell>
        <mxCell id="Bo_J6f6JGp_1QR0dRfJA-22" value="7) Send &amp;amp; Receive Email" style="edgeLabel;html=1;align=center;verticalAlign=middle;resizable=0;points=[];" vertex="1" connectable="0" parent="Bo_J6f6JGp_1QR0dRfJA-20">
          <mxGeometry x="-0.0196" y="1" relative="1" as="geometry">
            <mxPoint as="offset" />
          </mxGeometry>
        </mxCell>
        <mxCell id="Bo_J6f6JGp_1QR0dRfJA-23" style="rounded=0;orthogonalLoop=1;jettySize=auto;html=1;entryX=0.755;entryY=0.926;entryDx=0;entryDy=0;entryPerimeter=0;shape=link;fillColor=#f8cecc;strokeColor=#b85450;" edge="1" parent="1" source="Bo_J6f6JGp_1QR0dRfJA-7" target="Bo_J6f6JGp_1QR0dRfJA-3">
          <mxGeometry relative="1" as="geometry">
            <Array as="points">
              <mxPoint x="480" y="315" />
            </Array>
          </mxGeometry>
        </mxCell>
        <mxCell id="Bo_J6f6JGp_1QR0dRfJA-24" value="8) Send Response Action" style="edgeLabel;html=1;align=center;verticalAlign=middle;resizable=0;points=[];" vertex="1" connectable="0" parent="Bo_J6f6JGp_1QR0dRfJA-23">
          <mxGeometry x="-0.2552" y="-1" relative="1" as="geometry">
            <mxPoint as="offset" />
          </mxGeometry>
        </mxCell>
        <mxCell id="Bo_J6f6JGp_1QR0dRfJA-25" style="rounded=0;orthogonalLoop=1;jettySize=auto;html=1;exitX=0.17;exitY=0.2;exitDx=0;exitDy=0;exitPerimeter=0;entryX=0.07;entryY=0.93;entryDx=0;entryDy=0;entryPerimeter=0;shape=link;fillColor=#f8cecc;strokeColor=#b85450;" edge="1" parent="1" source="Bo_J6f6JGp_1QR0dRfJA-3" target="Bo_J6f6JGp_1QR0dRfJA-6">
          <mxGeometry relative="1" as="geometry">
            <Array as="points">
              <mxPoint x="310" y="80" />
            </Array>
          </mxGeometry>
        </mxCell>
        <mxCell id="Bo_J6f6JGp_1QR0dRfJA-29" style="rounded=0;orthogonalLoop=1;jettySize=auto;html=1;entryX=0;entryY=0.5;entryDx=0;entryDy=0;entryPerimeter=0;shape=link;fillColor=#f8cecc;strokeColor=#b85450;" edge="1" parent="1" source="Bo_J6f6JGp_1QR0dRfJA-5" target="Bo_J6f6JGp_1QR0dRfJA-1">
          <mxGeometry relative="1" as="geometry" />
        </mxCell>
        <mxCell id="Bo_J6f6JGp_1QR0dRfJA-30" value="8) Perform Response Action" style="edgeLabel;html=1;align=center;verticalAlign=middle;resizable=0;points=[];" vertex="1" connectable="0" parent="Bo_J6f6JGp_1QR0dRfJA-29">
          <mxGeometry x="-0.0282" y="-5" relative="1" as="geometry">
            <mxPoint as="offset" />
          </mxGeometry>
        </mxCell>
        <mxCell id="Bo_J6f6JGp_1QR0dRfJA-32" style="edgeStyle=orthogonalEdgeStyle;rounded=0;orthogonalLoop=1;jettySize=auto;html=1;" edge="1" parent="1" source="Bo_J6f6JGp_1QR0dRfJA-31">
          <mxGeometry relative="1" as="geometry">
            <mxPoint x="160" y="803" as="targetPoint" />
          </mxGeometry>
        </mxCell>
        <mxCell id="Bo_J6f6JGp_1QR0dRfJA-31" value="Win10&lt;br&gt;Send Events" style="text;html=1;align=center;verticalAlign=middle;resizable=0;points=[];autosize=1;strokeColor=none;fillColor=none;" vertex="1" parent="1">
          <mxGeometry x="-5" y="783" width="90" height="40" as="geometry" />
        </mxCell>
        <mxCell id="Bo_J6f6JGp_1QR0dRfJA-34" style="edgeStyle=orthogonalEdgeStyle;rounded=0;orthogonalLoop=1;jettySize=auto;html=1;" edge="1" parent="1" source="Bo_J6f6JGp_1QR0dRfJA-33">
          <mxGeometry relative="1" as="geometry">
            <mxPoint x="480" y="803" as="targetPoint" />
          </mxGeometry>
        </mxCell>
        <mxCell id="Bo_J6f6JGp_1QR0dRfJA-33" value="Wazuh Manager&lt;br&gt;Trigger Alerts &amp;amp; Perform Response Actions" style="text;html=1;align=center;verticalAlign=middle;resizable=0;points=[];autosize=1;strokeColor=none;fillColor=none;" vertex="1" parent="1">
          <mxGeometry x="160" y="783" width="250" height="40" as="geometry" />
        </mxCell>
        <mxCell id="Bo_J6f6JGp_1QR0dRfJA-36" style="edgeStyle=orthogonalEdgeStyle;rounded=0;orthogonalLoop=1;jettySize=auto;html=1;" edge="1" parent="1" source="Bo_J6f6JGp_1QR0dRfJA-35">
          <mxGeometry relative="1" as="geometry">
            <mxPoint x="840" y="803" as="targetPoint" />
          </mxGeometry>
        </mxCell>
        <mxCell id="Bo_J6f6JGp_1QR0dRfJA-38" style="edgeStyle=orthogonalEdgeStyle;rounded=0;orthogonalLoop=1;jettySize=auto;html=1;" edge="1" parent="1" source="Bo_J6f6JGp_1QR0dRfJA-35">
          <mxGeometry relative="1" as="geometry">
            <mxPoint x="617.25" y="720" as="targetPoint" />
          </mxGeometry>
        </mxCell>
        <mxCell id="Bo_J6f6JGp_1QR0dRfJA-40" style="edgeStyle=orthogonalEdgeStyle;rounded=0;orthogonalLoop=1;jettySize=auto;html=1;" edge="1" parent="1" source="Bo_J6f6JGp_1QR0dRfJA-35">
          <mxGeometry relative="1" as="geometry">
            <mxPoint x="617.25" y="900" as="targetPoint" />
          </mxGeometry>
        </mxCell>
        <mxCell id="Bo_J6f6JGp_1QR0dRfJA-35" value="Shuffle&lt;br&gt;Receive Wazuh Alerts &amp;amp; Send Response Actions" style="text;html=1;align=center;verticalAlign=middle;resizable=0;points=[];autosize=1;strokeColor=none;fillColor=none;" vertex="1" parent="1">
          <mxGeometry x="477.25" y="783" width="280" height="40" as="geometry" />
        </mxCell>
        <mxCell id="Bo_J6f6JGp_1QR0dRfJA-37" value="Email&lt;br&gt;Send Email &amp;amp; Response Actions" style="text;html=1;align=center;verticalAlign=middle;resizable=0;points=[];autosize=1;strokeColor=none;fillColor=none;" vertex="1" parent="1">
          <mxGeometry x="840" y="783" width="200" height="40" as="geometry" />
        </mxCell>
        <mxCell id="Bo_J6f6JGp_1QR0dRfJA-39" value="OSINT&lt;br&gt;Enrich IOCS" style="text;html=1;align=center;verticalAlign=middle;resizable=0;points=[];autosize=1;strokeColor=none;fillColor=none;" vertex="1" parent="1">
          <mxGeometry x="572.25" y="683" width="90" height="40" as="geometry" />
        </mxCell>
        <mxCell id="Bo_J6f6JGp_1QR0dRfJA-41" value="TheHive&lt;br&gt;Create Alert in Case Management" style="text;html=1;align=center;verticalAlign=middle;resizable=0;points=[];autosize=1;strokeColor=none;fillColor=none;" vertex="1" parent="1">
          <mxGeometry x="517.25" y="903" width="200" height="40" as="geometry" />
        </mxCell>
      </root>
    </mxGraphModel>
  </diagram>
</mxfile>
